<?xml version="1.0" encoding="UTF-8"?>
<!DOCTYPE svg PUBLIC "-//W3C//DTD SVG 1.1//EN" "http://www.w3.org/Graphics/SVG/1.1/DTD/svg11.dtd">
<!-- Creator: CorelDRAW 2018 (64-Bit) -->
<svg xmlns="http://www.w3.org/2000/svg" xml:space="preserve" width="46.2403mm" height="10.5834mm" version="1.1" style="shape-rendering:geometricPrecision; text-rendering:geometricPrecision; image-rendering:optimizeQuality; fill-rule:evenodd; clip-rule:evenodd"
viewBox="0 0 1486.07 340.13"
 xmlns:xlink="http://www.w3.org/1999/xlink">
 <defs>
  <style type="text/css">
   <![CDATA[
    .fil0 {fill:black;fill-rule:nonzero}
   ]]>
  </style>
 </defs>
 <g id="Warstwa_x0020_1">
  <metadata id="CorelCorpID_0Corel-Layer"/>
  <path class="fil0" d="M1111.47 159.85c-5.88,3.67 -14.21,11.59 -13.1,16.13 11.16,-0.01 38.17,-16.33 49.33,-24.8 9.31,-7.07 19.57,-3.3 14.51,11.39 -1.8,5.22 -2.97,13.82 4.9,15.74 19.16,4.68 52.1,-4.22 70.76,-10.96l13.36 1c-8.73,-2.12 -17.61,-7.78 -11.12,-17.72 7.4,-11.61 41.92,-22.56 52.77,-15.19 10.29,6.99 -3.84,17.95 -10.58,23.05 12.69,1 13.65,7.69 7.61,14.47 -2.38,2.69 -15.31,13.46 -12.69,16.53 3.59,4.21 31.32,-5.67 36.39,-7.39 13.91,-4.74 27.77,-10.41 41.46,-16 8.5,-3.47 18.33,-8.73 23.28,-4.47 5.89,5.06 -3.89,12.52 -7.92,21.52 -1.01,2.26 -0.76,6.27 3.7,7.3 26.56,6.14 87.93,-14.31 111.95,-26.57l0 7.24c-28.62,14.17 -81.93,34.53 -112.68,30.65 -16.1,-2.03 -22.95,-11.31 -14.19,-25.72l-8.06 5.74c-11.11,4.42 -22.24,8.74 -33.26,12.49 -11.46,3.9 -41.35,12.31 -51.66,2.91 -8.72,-7.96 2.09,-20.62 7.9,-26.56l-9.72 -0.91c-23.86,12.25 -71.28,25.56 -98.59,19.25 -12.75,-2.94 -20.24,-10.71 -17.19,-24.48l-5.98 7.13c-12.78,7.61 -41.82,20.84 -53.82,12.05 -9.13,-6.68 4.78,-24.4 22.63,-31.74l0 7.92zm297.26 -28.69c5.97,3.59 2.84,10.77 -3.4,10.97 -6.39,0.2 -11.84,-5.22 -9.68,-11.95 2.24,-6.99 13.69,-11.21 22.32,-6.42l0.07 3.94c-3.2,-0.37 -7.76,-0.07 -9.3,3.47zm-1408.73 -67.41l6.78 0c10.98,27.65 48.66,51.27 89.71,57.84 28.76,-21.15 67.85,-42.57 113.34,-61.75 79.11,-33.36 137.59,-42.08 167.67,-38.21 21.29,2.74 35.45,15.57 20.88,36.44 -19.92,28.54 -88.82,59 -123.72,69.71 -53.8,16.5 -118.31,20.05 -173.38,7.69 -26.18,18.25 -42.58,35.06 -51.32,49.07 -24.03,38.56 10.7,47.35 43.33,47.9 73.19,1.24 182.73,-34.77 245.77,-72.99 9.35,-5.67 19.7,-11.13 30.19,-10.63l0 6.6c-15.85,2.44 -31.43,16.06 -32.76,22.37 9.93,-0.38 31.32,-16.23 41.38,-21.91 8.41,-4.73 15.47,1.82 10.92,9.67 -2.11,3.64 -12.25,14.71 -7.16,18.39 11.64,8.43 56.82,-9.44 71.21,-16.27l11.34 1.49c-6.47,-1.87 -11.74,-6.14 -10.18,-13.57 2.51,-16.14 40.11,-27.13 50.93,-18.46 8.64,6.92 -3.67,17.02 -11.19,22.33 11.15,0.41 13.26,7.21 7.23,13.72 -1.64,1.65 -13.64,13.11 -10.48,14.14 8.76,2.89 73.68,-20.39 83.71,-25.12 9.48,-24.09 39.98,-50.69 61.38,-66.61 18,-13.38 45.82,-29.64 67.76,-33.79 12.76,-2.41 20.08,2.85 15.36,15.93 -7.22,19.67 -43.42,46.94 -60.58,57.54 -23.36,14.43 -48.05,26.38 -73.47,36.68 -10.2,29.77 54.12,15.22 66.58,11.38 20.78,-6.41 29.35,-14.87 43.6,-23.18 7.74,-4.51 16.93,-9.29 25.99,-8.82l0 6.57c-13.56,1.48 -29.23,14.29 -30.73,22.62 9.22,-1.31 27.34,-15.49 36.4,-21.08 9.86,-6.31 17.74,1.38 11.15,11.43 -7.34,11.53 -12.81,26.88 8.47,25.27 39.54,-3 105.83,-50.9 140.22,-75.03 64.69,-45.4 110.22,-78.26 172.53,-102.59 42.98,-16.79 82.7,-21.7 108.3,-16.62 20.52,4.07 33.78,15.33 27.1,37.68 -5.04,16.83 -23.03,39.39 -58.66,67.8 -49.63,39.56 -108.39,72.13 -165.4,99.98 94.84,2.25 213.05,28.85 288.21,92.74l-9.66 0c-78.57,-60.24 -204.29,-83.57 -300.14,-81.19 -91.69,42.87 -233.21,99.84 -330.99,118.38 -51.63,9.79 -54.36,-6.77 -16.17,-34.4 89.37,-64.67 226.18,-95.8 333.96,-96 57.09,-27.26 131.56,-66.61 187.43,-108.92 35.86,-27.15 58.07,-49.87 62.47,-64.57 4.49,-15.01 -5.9,-20.99 -19.06,-23.6 -23.51,-4.66 -59.39,3.95 -100.31,19.93 -60.97,23.82 -106.02,56.34 -170.04,101.26 -36.99,25.95 -101.06,70.99 -147.78,74.3 -19.76,1.4 -36.37,-4.51 -29.73,-24.66 -4.81,3.23 -14.07,8.83 -22.51,11.08 -8.2,2.18 -19.46,0.19 -16.6,-10.89l-5.04 6.28c-7.05,3.29 -14.55,6.09 -22.1,8.15 -21.59,5.9 -79.17,16.85 -80.81,-18.09 -17.15,6.54 -76.12,27.81 -92.23,18.82 -7.9,-4.41 -0.19,-17.81 7.13,-24.73l-9.88 -0.54c-21.82,11.19 -80.4,33.86 -101.77,20.91 -4.71,-2.85 -6.99,-7.68 -5.02,-15.41 -5.89,3.63 -19.86,11.52 -30.83,12.52 -7.75,0.71 -15.09,-2.67 -13.47,-11.4l-3.94 6.62c-61.59,32.49 -162.48,66.08 -233.42,60.75 -37.54,-2.81 -69.18,-18.99 -50.54,-60.65 6.86,-15.33 21.13,-33.24 46.35,-52.65 -34.55,-10.14 -71.55,-30.73 -83.75,-67.67zm599.79 255.49c-15.19,12.01 -14.06,11.36 2.44,8.22 82.77,-15.74 213.98,-65.91 298.44,-103.03l27.56 -5.24c-107.44,1.99 -245.47,36.02 -328.44,100.04zm-126.99 -161.28c4.44,-1.78 17.73,-9.82 23.36,-15.54 -11.95,-4.47 -45.17,13.84 -23.36,15.54zm126 -5.95c17.95,-8.15 35.75,-17.38 52.47,-27.7 13.62,-8.41 52.34,-36.44 60.06,-52.5 0.82,-1.72 0.75,-2.93 -2.28,-2.36 -19.58,3.71 -49.53,24.59 -66.01,36.72 -21.38,15.75 -42.21,33.6 -55.25,56.32l11.01 -10.48zm-489.55 -22.3l12.68 -3.43c46.74,7.22 100.46,3.4 148.36,-11.28 32.1,-9.85 102.5,-39.05 120.55,-64.92 8.55,-12.25 1,-17.08 -10.4,-18.76 -28.09,-4.13 -88.73,8.01 -165.49,40.38 -37.15,15.67 -73.02,34.34 -105.7,58zm1150.09 27.72c7.87,-3.53 22.17,-11.97 25.14,-16.01 -17.14,-2.02 -44.37,13.84 -25.14,16.01z"/>
 </g>
</svg>
