<?xml version="1.0" encoding="UTF-8"?>
<!DOCTYPE svg PUBLIC "-//W3C//DTD SVG 1.1//EN" "http://www.w3.org/Graphics/SVG/1.1/DTD/svg11.dtd">
<!-- Creator: CorelDRAW 2018 (64-Bit) -->
<svg xmlns="http://www.w3.org/2000/svg" xml:space="preserve" width="36.6889mm" height="9.1722mm" version="1.1" style="shape-rendering:geometricPrecision; text-rendering:geometricPrecision; image-rendering:optimizeQuality; fill-rule:evenodd; clip-rule:evenodd"
viewBox="0 0 667.07 166.77"
 xmlns:xlink="http://www.w3.org/1999/xlink">
 <defs>
  <style type="text/css">
   <![CDATA[
    .fil0 {fill:#E24244}
    .fil1 {fill:white}
   ]]>
  </style>
 </defs>
 <g id="Warstwa_x0020_1">
  <metadata id="CorelCorpID_0Corel-Layer"/>
  <g id="_1831994782976">
   <polygon class="fil0" points="-0,166.77 667.07,166.77 667.07,0 -0,0 "/>
   <g>
    <path class="fil1" d="M438.27 82.92l38.3 0 0 -38.3 19.15 0 0 57.45 -14.69 0.04c3.25,5.62 5.11,12.15 5.11,19.11l-19.19 -0c0,-10.55 -8.56,-19.11 -19.11,-19.11l-9.57 0 0 19.11 -19.15 0c0,-25.53 0,-51.07 0,-76.6l19.15 0 0 38.3z"/>
    <path class="fil1" d="M304.21 121.22c-21.15,0 -38.3,-17.15 -38.3,-38.3l0 -38.3 44.68 0 0 19.15 -25.43 0 -0.1 19.15c0,10.58 8.57,19.15 19.15,19.15l0 19.15z"/>
    <path class="fil1" d="M208.46 44.62c21.11,0 38.3,17.19 38.3,38.3 0,12.76 0,25.55 0,38.3l-19.15 0 -0 -19.15 -19.15 0c-10.56,0 -19.15,8.59 -19.15,19.15l-19.15 0c0,-21.11 17.19,-38.3 38.3,-38.3l19.15 0c0,-10.56 -8.59,-19.15 -19.15,-19.15l-32.1 0 0 -19.15 32.1 0z"/>
    <path class="fil1" d="M115.93 82.92c21.15,0 38.27,17.15 38.27,38.3l-19.15 0c0,-10.58 -8.54,-19.15 -19.12,-19.15l-38.33 0.01 0 -19.15c0,-21.15 17.18,-38.3 38.33,-38.3l31.89 0 0 19.15 -31.89 0c-10.58,0 -19.15,8.57 -19.15,19.15l19.16 0z"/>
    <path class="fil1" d="M514.87 121.23l38.3 -0c21.11,0 38.3,-17.19 38.3,-38.3l0 -38.3 -19.11 0 0 38.3c0,10.56 -8.63,19.15 -19.19,19.15l-19.15 0 0 -57.45 -19.15 0 0 76.6z"/>
    <path class="fil1" d="M361.66 44.62c21.11,0 38.3,17.19 38.3,38.3 0,12.76 0,25.55 0,38.3l-19.15 0 -0 -19.15 -19.15 0c-10.56,0 -19.15,8.59 -19.15,19.15l-19.15 0c0,-21.11 17.19,-38.3 38.3,-38.3l19.15 0c0,-10.56 -8.6,-19.15 -19.15,-19.15l-32.1 0 0 -19.15 32.1 0z"/>
   </g>
  </g>
 </g>
</svg>
