<?xml version="1.0" encoding="UTF-8"?>
<!DOCTYPE svg PUBLIC "-//W3C//DTD SVG 1.1//EN" "http://www.w3.org/Graphics/SVG/1.1/DTD/svg11.dtd">
<!-- Creator: CorelDRAW 2018 (64-Bit) -->
<svg xmlns="http://www.w3.org/2000/svg" xml:space="preserve" width="46.9743mm" height="10.5833mm" version="1.1" style="shape-rendering:geometricPrecision; text-rendering:geometricPrecision; image-rendering:optimizeQuality; fill-rule:evenodd; clip-rule:evenodd"
viewBox="0 0 5535.23 1247.09"
 xmlns:xlink="http://www.w3.org/1999/xlink">
 <defs>
  <style type="text/css">
   <![CDATA[
    .fil10 {fill:#FFE199}
    .fil11 {fill:#F09339}
    .fil0 {fill:#333333;fill-rule:nonzero}
    .fil2 {fill:black;fill-opacity:0.101961}
    .fil1 {fill:url(#id0)}
    .fil3 {fill:url(#id1)}
    .fil4 {fill:url(#id2)}
    .fil5 {fill:url(#id3)}
    .fil8 {fill:url(#id4)}
    .fil9 {fill:url(#id5)}
    .fil6 {fill:url(#id6)}
    .fil7 {fill:url(#id7)}
   ]]>
  </style>
  <linearGradient id="id0" gradientUnits="userSpaceOnUse" x1="698.74" y1="1247.11" x2="698.74" y2="0.01">
   <stop offset="0" style="stop-opacity:1; stop-color:#E61C64"/>
   <stop offset="1" style="stop-opacity:1; stop-color:#EA2046"/>
  </linearGradient>
  <linearGradient id="id1" gradientUnits="userSpaceOnUse" x1="478.72" y1="347.63" x2="-48.62" y2="347.56">
   <stop offset="0" style="stop-opacity:1; stop-color:#FFF7B2"/>
   <stop offset="1" style="stop-opacity:1; stop-color:#EF7F1A"/>
  </linearGradient>
  <linearGradient id="id2" gradientUnits="userSpaceOnUse" x1="1245.56" y1="319.42" x2="794.78" y2="319.39">
   <stop offset="0" style="stop-opacity:1; stop-color:#FFF7B2"/>
   <stop offset="0.45098" style="stop-opacity:1; stop-color:#F7BB66"/>
   <stop offset="1" style="stop-opacity:1; stop-color:#EF7F1A"/>
  </linearGradient>
  <linearGradient id="id3" gradientUnits="userSpaceOnUse" x1="-281.6" y1="258.41" x2="730.17" y2="436.78">
   <stop offset="0" style="stop-opacity:1; stop-color:#FFF7B2"/>
   <stop offset="0.490196" style="stop-opacity:1; stop-color:#F7BB66"/>
   <stop offset="1" style="stop-opacity:1; stop-color:#EF7F1A"/>
  </linearGradient>
  <linearGradient id="id4" gradientUnits="userSpaceOnUse" x1="606.84" y1="559.17" x2="606.84" y2="1153.27">
   <stop offset="0" style="stop-opacity:1; stop-color:#FFF7B2"/>
   <stop offset="0.509804" style="stop-opacity:1; stop-color:#F7BB66"/>
   <stop offset="1" style="stop-opacity:1; stop-color:#EF7F1A"/>
  </linearGradient>
  <linearGradient id="id5" gradientUnits="userSpaceOnUse" x1="1078.34" y1="647.61" x2="398.12" y2="647.64">
   <stop offset="0" style="stop-opacity:1; stop-color:#FFF7B2"/>
   <stop offset="0.458824" style="stop-opacity:1; stop-color:#F7BB66"/>
   <stop offset="1" style="stop-opacity:1; stop-color:#EF7F1A"/>
  </linearGradient>
  <linearGradient id="id6" gradientUnits="userSpaceOnUse" x1="480.18" y1="438.19" x2="1165.24" y2="438.19">
   <stop offset="0" style="stop-opacity:1; stop-color:#EF7F1A"/>
   <stop offset="0.439216" style="stop-opacity:1; stop-color:#F7BB66"/>
   <stop offset="1" style="stop-opacity:1; stop-color:#FFF7B2"/>
  </linearGradient>
  <linearGradient id="id7" gradientUnits="userSpaceOnUse" x1="358.39" y1="-155.78" x2="727.27" y2="857.67">
   <stop offset="0" style="stop-opacity:1; stop-color:#FFF7B2"/>
   <stop offset="0.560784" style="stop-opacity:1; stop-color:#F7BB66"/>
   <stop offset="1" style="stop-opacity:1; stop-color:#EF7F1A"/>
  </linearGradient>
 </defs>
 <g id="Warstwa_x0020_1">
  <metadata id="CorelCorpID_0Corel-Layer"/>
  <g id="_1831946841696">
   <path class="fil0" d="M1928.21 664.21c-39.23,0 -72.67,-13.83 -100.34,-41.36 -27.53,-27.67 -41.36,-61.25 -41.36,-101.09 0,-38.77 13.83,-72.07 41.36,-99.58 27.21,-28.13 60.66,-42.11 100.34,-42.11l225.3 0 0 81.33 -225.3 0c-8.34,0 -16.26,1.53 -23.71,4.56 -7.61,3.04 -14.15,7.31 -19.77,12.93 -5.62,5.62 -9.89,12.16 -12.91,19.77 -3.04,7.45 -4.57,15.2 -4.57,23.11 0,16.87 5.79,31.31 17.49,43.47 11.71,12.17 26.3,18.25 43.48,18.25l121.33 0c39.37,0 72.82,13.83 100.34,41.36 28.13,27.66 42.11,61.11 42.11,100.34 0,38.92 -13.99,72.36 -42.11,100.5 -27.51,27.51 -60.98,41.35 -100.34,41.35l-243.8 0 0 -81.33 243.94 0c8.37,0 16.27,-1.53 23.72,-4.57 7.6,-3.04 14.14,-7.29 19.77,-12.62 5.62,-5.47 9.87,-11.87 12.91,-19.31 3.04,-7.45 4.56,-15.5 4.56,-23.87 0,-16.41 -6.08,-30.7 -18.24,-42.86 -11.71,-12.17 -26.01,-18.25 -42.73,-18.25l-121.48 0zm495.79 40.75l0 0 143.22 0 -71.62 -143.22 -71.6 143.22zm183.95 80.74l0 0 -223.93 0 -41.36 81.33 -90.47 0 243.41 -486.97 243.57 486.97 -90.6 0 -40.61 -81.33zm474.38 -324.31l0 0 -162.68 0 0 161.46 162.68 0.77c22.04,0.11 41.02,-7.95 56.87,-23.86 15.91,-15.98 23.86,-35.13 23.86,-57.63 0,-22.04 -7.95,-40.85 -23.86,-56.86 -15.86,-15.91 -34.84,-23.87 -56.87,-23.87zm68.72 405.64l0 0 -93.96 -162.07 -137.44 0 0 162.07 -80.73 0 0 -486.97 243.41 0c44.4,0 82.56,15.97 114.32,47.74 31.78,31.78 47.75,69.94 47.75,114.32 0,33.76 -9.6,64.31 -28.73,91.99 -18.71,27.03 -42.57,46.52 -71.62,58.21l100.35 174.7 -93.35 0zm233.68 -486.97l0 0 80.73 0 0 486.97 -80.73 0 0 -486.97zm464.61 0l0 0c33.76,0 65.26,6.4 94.74,19 29.47,12.6 55.48,30.11 77.98,52.46l-58.38 57.62c-31.32,-31.78 -69.33,-47.75 -114.35,-47.75 -44.39,0 -82.97,15.71 -115.09,47.75 -31.57,31.51 -46.97,69.94 -46.97,114.34 0,44.53 15.18,83.34 46.97,115.23 31.74,31.8 70.7,46.99 115.09,46.99 24.33,0 46.84,-4.88 67.66,-14.46 20.83,-9.58 38.92,-22.95 54.44,-40.28l0 -66.75 -122.1 0 0 -80.73 203.44 0 0 174.08c-11.25,16.43 -24.23,31.3 -38.92,44.85 -14.78,13.65 -30.74,25.25 -48.05,34.82 -17.31,9.56 -35.75,16.87 -55.49,22.05 -19.6,5.13 -39.98,7.75 -60.98,7.75 -67.34,0 -124.42,-24.14 -171.78,-71.61 -47.46,-47.53 -71.62,-104.45 -71.62,-171.95 0,-66.75 23.97,-124.01 71.47,-171.82 47.33,-47.64 104.59,-71.6 171.93,-71.6zm436.2 324.9l0 0 143.22 0 -71.62 -143.22 -71.6 143.22zm183.95 80.74l0 0 -223.93 0 -41.35 81.33 -90.47 0 243.4 -486.97 243.57 486.97 -90.6 0 -40.61 -81.33zm107.19 -405.64l0 0 0 81.33 162.82 0 0 405.64 81.35 0 0 -405.64 162.06 0 0 -81.33 -406.24 0zm714.35 0l0 0c67.35,0 124.43,24.09 171.96,71.6 47.97,47.97 72.22,105.06 72.22,171.82 0,67.96 -24.56,124.8 -72.22,171.95 -47.75,47.22 -104.6,71.61 -171.96,71.61 -67.35,0 -124.45,-24.18 -171.79,-71.61 -47.43,-47.51 -71.62,-104.45 -71.62,-171.95 0,-66.75 24.18,-123.83 71.62,-171.82 46.92,-47.43 103.99,-71.6 171.79,-71.6zm0 81.33l0 0c-44.39,0 -83.11,15.75 -115.09,47.75 -31.52,31.52 -46.98,69.94 -46.98,114.34 0,44.53 15.2,83.37 46.98,115.23 31.72,31.78 70.7,46.99 115.09,46.99 44.4,0 82.87,-15.45 114.34,-46.99 32,-32.07 47.74,-70.7 47.74,-115.23 0,-44.4 -16,-82.6 -47.74,-114.34 -31.73,-31.73 -69.94,-47.75 -114.34,-47.75z"/>
   <g>
    <circle class="fil1" cx="698.73" cy="623.54" r="623.54"/>
    <path class="fil2" d="M1010.63 275.4l112.14 112.79 -130.9 -0.26 0.01 215.3 -279.3 264.38 44.99 46.76 -238.11 215.54 0 -465.53 -109.13 -101.07 -268.89 -213.14c29.56,-59.8 68.67,-114.04 115.35,-160.72 2.79,-2.8 5.63,-5.56 8.48,-8.31l200.78 9.92 247.87 256.88 207.51 -169.77 89.2 -2.78z"/>
    <g>
     <polygon class="fil3" points="417.24,199.54 417.24,551.17 2.73,199.54 "/>
     <polygon class="fil4" points="1010.61,256.39 1122.76,369.18 788.34,369.18 924.78,256.37 "/>
     <polygon class="fil5" points="417.22,133.94 565.57,281.44 417.24,551.17 -0,133.96 "/>
     <polygon class="fil6" points="713.9,847.88 713.9,428.92 924.79,256.37 1010.61,256.39 1010.61,551.16 "/>
     <polygon class="fil7" points="417.21,551.2 417.18,133.98 836.83,551.2 713.88,847.91 "/>
     <polygon class="fil8" points="757.7,891.67 519.45,1129.92 519.45,653.42 862.26,699.52 713.92,847.88 "/>
     <polygon class="fil9" points="713.9,847.88 417.23,551.17 1010.61,551.16 "/>
    </g>
    <polygon class="fil10" points="417.22,133.94 417.18,514.99 426.2,142.88 "/>
    <polygon class="fil10" points="417.66,550.88 1010.32,550.86 713.99,559.69 "/>
    <polygon class="fil10" points="1002.47,256.39 1010.61,350.29 1010.61,256.39 "/>
    <polygon class="fil10" points="519.45,653.42 519.45,664.91 658.9,792.83 "/>
    <polygon class="fil11" points="407.51,133.94 417.22,133.94 417.18,514.99 "/>
    <polygon class="fil11" points="417.66,550.88 829.55,543.73 1010.32,550.86 "/>
    <g>
     <polygon class="fil10" points="334.16,480.63 65.6,199.54 416.78,550.73 "/>
     <polygon class="fil11" points="50.92,199.54 65.6,199.54 281.69,415.65 "/>
    </g>
    <polygon class="fil11" points="1018.56,369.04 1010.61,369.04 1010.61,284.58 "/>
    <polygon class="fil10" points="827.64,541.84 720.6,423.36 713.9,428.92 "/>
    <polygon class="fil11" points="720.54,840.74 713.68,847.61 565.51,699.45 "/>
   </g>
  </g>
 </g>
</svg>
