<?xml version="1.0" encoding="UTF-8"?>
<!DOCTYPE svg PUBLIC "-//W3C//DTD SVG 1.1//EN" "http://www.w3.org/Graphics/SVG/1.1/DTD/svg11.dtd">
<!-- Creator: CorelDRAW 2018 (64-Bit) -->
<svg xmlns="http://www.w3.org/2000/svg" xml:space="preserve" width="26.8626mm" height="21.5554mm" version="1.1" style="shape-rendering:geometricPrecision; text-rendering:geometricPrecision; image-rendering:optimizeQuality; fill-rule:evenodd; clip-rule:evenodd"
viewBox="0 0 499.13 400.52"
 xmlns:xlink="http://www.w3.org/1999/xlink">
 <defs>
  <style type="text/css">
   <![CDATA[
    .fil1 {fill:black}
    .fil0 {fill:black;fill-rule:nonzero}
   ]]>
  </style>
 </defs>
 <g id="Warstwa_x0020_1">
  <metadata id="CorelCorpID_0Corel-Layer"/>
  <path class="fil0" d="M338.26 52.44c-3.89,0 -4.92,5.32 -1.58,6.84 0.38,0.23 1.1,0.37 1.58,0.37l18.02 0c3.89,0 4.92,-5.32 1.58,-6.84 -0.38,-0.23 -1.1,-0.37 -1.58,-0.37l-18.02 0zm-278.27 240.23c0,-3.89 -5.32,-4.92 -6.84,-1.58 -0.23,0.38 -0.37,1.1 -0.37,1.58l0 18.02c0,3.89 5.32,4.92 6.84,1.58 0.23,-0.38 0.37,-1.1 0.37,-1.58l0 -18.02zm0 65.9c0,-3.89 -5.32,-4.92 -6.84,-1.58 -0.23,0.38 -0.37,1.1 -0.37,1.58l0 18.02c0,6.2 2.51,12.35 6.9,16.74l0.14 0.15c4.48,4.48 10.54,7.04 16.88,7.04l18.02 0c3.89,0 4.92,-5.32 1.58,-6.84 -0.38,-0.23 -1.1,-0.37 -1.58,-0.37l-18.02 0c-4.44,0 -8.66,-1.8 -11.78,-4.93l-0.12 -0.12c-3.06,-3.06 -4.81,-7.35 -4.81,-11.67l0 -18.02zm67.68 34.74c-3.89,0 -4.92,5.32 -1.58,6.84 0.38,0.23 1.1,0.37 1.58,0.37l32.95 0c3.89,0 4.92,-5.32 1.58,-6.84 -0.38,-0.23 -1.1,-0.37 -1.58,-0.37l-32.95 0zm65.9 0c-3.89,0 -4.92,5.32 -1.58,6.84 0.38,0.23 1.1,0.37 1.58,0.37l32.95 0c3.89,0 4.92,-5.32 1.58,-6.84 -0.38,-0.23 -1.1,-0.37 -1.58,-0.37l-32.95 0zm65.9 0c-3.89,0 -4.92,5.32 -1.58,6.84 0.38,0.23 1.1,0.37 1.58,0.37l32.95 0c3.89,0 4.92,-5.32 1.58,-6.84 -0.38,-0.23 -1.1,-0.37 -1.58,-0.37l-32.95 0zm65.9 0c-3.89,0 -4.92,5.32 -1.58,6.84 0.38,0.23 1.1,0.37 1.58,0.37l32.95 0c3.89,0 4.92,-5.32 1.58,-6.84 -0.38,-0.23 -1.1,-0.37 -1.58,-0.37l-32.95 0zm65.9 0c-3.89,0 -4.92,5.32 -1.58,6.84 0.38,0.23 1.1,0.37 1.58,0.37l32.95 0c3.89,0 4.92,-5.32 1.58,-6.84 -0.38,-0.23 -1.1,-0.37 -1.58,-0.37l-32.95 0zm65.9 0c-3.89,0 -4.92,5.32 -1.58,6.84 0.38,0.23 1.1,0.37 1.58,0.37l18.02 0c6.2,0 12.36,-2.49 16.75,-6.88l0.15 -0.14c4.5,-4.58 7.03,-10.45 7.03,-16.9l0 -18.03c0,-3.89 -5.32,-4.92 -6.84,-1.58 -0.23,0.38 -0.37,1.1 -0.37,1.58l0 18.03c0,4.36 -1.78,8.75 -4.91,11.8l-0.12 0.12c-3.06,3.06 -7.36,4.8 -11.68,4.8l-18.02 0zm34.74 -72.48c0,3.89 5.32,4.92 6.84,1.58 0.23,-0.38 0.37,-1.1 0.37,-1.58l0 -37.74c0,-3.89 -5.32,-4.92 -6.84,-1.58 -0.23,0.38 -0.37,1.1 -0.37,1.58l0 37.74zm0 -75.48c0,3.89 5.32,4.92 6.84,1.58 0.23,-0.38 0.37,-1.1 0.37,-1.58l0 -37.74c0,-3.89 -5.32,-4.92 -6.84,-1.58 -0.23,0.38 -0.37,1.1 -0.37,1.58l0 37.74zm0 -75.48c0,3.89 5.32,4.92 6.84,1.58 0.23,-0.38 0.37,-1.1 0.37,-1.58l0 -37.74c0,-3.89 -5.32,-4.92 -6.84,-1.58 -0.23,0.38 -0.37,1.1 -0.37,1.58l0 37.74zm0 -75.48c0,3.89 5.32,4.92 6.84,1.58 0.23,-0.38 0.37,-1.1 0.37,-1.58l0 -18.02c0,-6.19 -2.51,-12.35 -6.9,-16.74l-0.16 -0.16c-4.48,-4.48 -10.52,-7.02 -16.87,-7.02l-18.03 0c-3.89,0 -4.92,5.32 -1.58,6.84 0.38,0.23 1.1,0.37 1.58,0.37l18.03 0c4.46,0 8.66,1.79 11.8,4.94l0.1 0.1c3.08,3.49 4.81,6.91 4.81,11.67l0 18.02zm-68.37 -34.74c3.89,0 4.92,-5.32 1.58,-6.84 -0.38,-0.23 -1.1,-0.37 -1.58,-0.37l-33.63 0c-3.89,0 -4.92,5.32 -1.58,6.84 0.38,0.23 1.1,0.37 1.58,0.37l33.63 0z"/>
  <path class="fil1" d="M159.56 216.32c1.99,0 3.6,1.61 3.6,3.6 0,1.99 -1.61,3.6 -3.6,3.6l-136.32 -0.01c-6.41,-0 -12.22,-2.61 -16.43,-6.82 -4.2,-4.2 -6.81,-10.02 -6.81,-16.44l0.16 -177.01c0.01,-6.41 2.62,-12.23 6.83,-16.43 4.21,-4.21 10.02,-6.82 16.42,-6.82l235.8 0c6.41,0 12.23,2.62 16.44,6.83 4.2,4.2 6.81,10.02 6.81,16.44l0.01 141.12c0.01,1.71 -0.39,3.32 -1.15,4.75 -0.75,1.43 -1.87,2.67 -3.3,3.64 -1.43,0.97 -2.98,1.54 -4.58,1.72l-0.12 0.01c-1.57,0.15 -3.17,-0.07 -4.72,-0.68l-104.45 -41.35c-0.59,-0.23 -1.17,-0.29 -1.69,-0.18 -0.52,0.11 -1.03,0.38 -1.47,0.82 -0.43,0.43 -0.72,0.93 -0.84,1.45 -0.11,0.55 -0.07,1.13 0.15,1.7l38.15 100.95c0.22,0.59 0.59,1.06 1.04,1.38 0.46,0.33 1.03,0.51 1.65,0.53 0.63,0.01 1.21,-0.14 1.68,-0.44 0.46,-0.29 0.85,-0.75 1.1,-1.32l14.01 -31.72c0.8,-1.82 2.93,-2.64 4.75,-1.84 0.42,0.19 0.79,0.44 1.09,0.75l37.09 37.08c0.57,0.57 1.33,0.86 2.08,0.86 0.76,0 1.51,-0.29 2.08,-0.86l4.64 -4.62c0.57,-0.59 0.86,-1.35 0.86,-2.1 0,-0.76 -0.29,-1.51 -0.86,-2.08l-37.08 -37.08c-1.41,-1.41 -1.41,-3.69 0,-5.1 1.41,-1.41 3.69,-1.41 5.1,0l37.08 37.08c1.98,1.98 2.97,4.58 2.97,7.18 0,2.6 -0.99,5.21 -2.97,7.18l-4.64 4.64c-1.98,1.98 -4.58,2.97 -7.18,2.97 -2.6,0 -5.2,-0.99 -7.18,-2.97l-33.37 -33.37 -11.88 26.91c-0.84,1.91 -2.19,3.45 -3.86,4.5 -1.64,1.04 -3.59,1.59 -5.66,1.54l-0.05 0c-2.09,-0.06 -4.02,-0.72 -5.62,-1.85 -1.6,-1.14 -2.86,-2.75 -3.6,-4.7l-38.15 -100.95c-0.72,-1.91 -0.86,-3.89 -0.45,-5.75l0.01 -0.01c0.41,-1.87 1.37,-3.62 2.82,-5.05 1.45,-1.43 3.21,-2.35 5.1,-2.73 1.89,-0.38 3.87,-0.22 5.75,0.52l104.44 41.35c0.47,0.19 0.94,0.26 1.37,0.22l0.04 -0.01c0.46,-0.05 0.92,-0.22 1.34,-0.51 0.42,-0.28 0.75,-0.64 0.96,-1.05 0.21,-0.39 0.32,-0.87 0.32,-1.4l0 -141.12c0,-4.41 -1.81,-8.42 -4.73,-11.34 -2.91,-2.91 -6.93,-4.72 -11.34,-4.72l-235.8 0c-4.43,0 -8.45,1.8 -11.35,4.71 -2.91,2.91 -4.72,6.92 -4.72,11.33l-0.14 177.01c-0.01,4.4 1.8,8.42 4.72,11.34 2.92,2.92 6.93,4.73 11.33,4.74l136.32 -0.01z"/>
 </g>
</svg>
