<?xml version="1.0" encoding="UTF-8"?>
<!DOCTYPE svg PUBLIC "-//W3C//DTD SVG 1.1//EN" "http://www.w3.org/Graphics/SVG/1.1/DTD/svg11.dtd">
<!-- Creator: CorelDRAW 2018 (64-Bit) -->
<svg xmlns="http://www.w3.org/2000/svg" xml:space="preserve" width="12.3472mm" height="5.9972mm" version="1.1" style="shape-rendering:geometricPrecision; text-rendering:geometricPrecision; image-rendering:optimizeQuality; fill-rule:evenodd; clip-rule:evenodd"
viewBox="0 0 49.33 23.96"
 xmlns:xlink="http://www.w3.org/1999/xlink">
 <defs>
  <style type="text/css">
   <![CDATA[
    .fil0 {fill:#D6D8DA}
    .fil1 {fill:#D6D8DA;fill-rule:nonzero}
   ]]>
  </style>
 </defs>
 <g id="Warstwa_x0020_1">
  <metadata id="CorelCorpID_0Corel-Layer"/>
  <path class="fil0" d="M11.98 0l25.37 0c6.59,0 11.98,5.39 11.98,11.98 0,6.59 -5.39,11.98 -11.98,11.98l-25.37 0c-6.59,0 -11.98,-5.39 -11.98,-11.98 0,-6.59 5.39,-11.98 11.98,-11.98zm25.37 1.55l-25.37 0c-2.87,0 -5.47,1.17 -7.37,3.06 -1.89,1.89 -3.06,4.5 -3.06,7.36 0,2.87 1.17,5.48 3.06,7.37 1.89,1.89 4.5,3.06 7.37,3.06l25.37 0c2.87,0 5.47,-1.17 7.37,-3.06 1.89,-1.89 3.06,-4.5 3.06,-7.37 0,-2.87 -1.17,-5.48 -3.06,-7.37 -1.89,-1.89 -4.5,-3.06 -7.37,-3.06z"/>
  <path class="fil1" d="M21.36 16.59l0 -9.29 -0.84 0 -3.71 3.98 -3.74 -3.98 -0.84 0 0 9.29 1.91 0 0 -5.78 2.39 2.61 0.56 0 2.35 -2.61 0 5.78 1.91 0zm2.69 -9.22l0 9.22 1.91 0 0 -3.16c0.46,0.22 1.13,0.41 1.94,0.41 1.84,0 3.44,-1.29 3.44,-3.18 0,-2.04 -1.76,-3.29 -3.48,-3.29l-3.81 0zm3.54 4.82c-0.61,0 -1.21,-0.14 -1.63,-0.3l0 -2.73 1.58 0c0.99,0 1.85,0.54 1.85,1.5 0,0.86 -0.7,1.53 -1.8,1.53zm10.47 0.8l0 -5.62 -1.2 0c-1.36,2.46 -2.94,4.4 -4.44,6.05l0 1.13 3.88 0 0 2.04 1.76 0 0 -2.04 1.25 0 0 -1.55 -1.25 0zm-1.76 0l-1.57 0c0.57,-0.67 1.02,-1.33 1.57,-2.16l0 2.16z"/>
 </g>
</svg>
