<?xml version="1.0" encoding="UTF-8"?>
<!DOCTYPE svg PUBLIC "-//W3C//DTD SVG 1.1//EN" "http://www.w3.org/Graphics/SVG/1.1/DTD/svg11.dtd">
<!-- Creator: CorelDRAW 2018 (64-Bit) -->
<svg xmlns="http://www.w3.org/2000/svg" xml:space="preserve" width="12.3472mm" height="5.9972mm" version="1.1" style="shape-rendering:geometricPrecision; text-rendering:geometricPrecision; image-rendering:optimizeQuality; fill-rule:evenodd; clip-rule:evenodd"
viewBox="0 0 54.02 26.24"
 xmlns:xlink="http://www.w3.org/1999/xlink">
 <defs>
  <style type="text/css">
   <![CDATA[
    .fil0 {fill:#D6D8DA}
    .fil1 {fill:#D6D8DA;fill-rule:nonzero}
   ]]>
  </style>
 </defs>
 <g id="Warstwa_x0020_1">
  <metadata id="CorelCorpID_0Corel-Layer"/>
  <path class="fil0" d="M13.12 0l27.78 0c7.22,0 13.12,5.9 13.12,13.12 0,7.22 -5.9,13.12 -13.12,13.12l-27.78 0c-7.22,0 -13.12,-5.9 -13.12,-13.12 0,-7.22 5.9,-13.12 13.12,-13.12zm27.78 1.7l-27.78 0c-3.14,0 -5.99,1.29 -8.06,3.36 -2.07,2.07 -3.36,4.93 -3.36,8.06 0,3.14 1.29,6 3.36,8.07 2.07,2.07 4.93,3.36 8.06,3.36l27.78 0c3.14,0 5.99,-1.29 8.06,-3.36 2.07,-2.07 3.36,-4.93 3.36,-8.06 0,-3.14 -1.29,-6 -3.36,-8.07 -2.07,-2.07 -4.93,-3.36 -8.06,-3.36z"/>
  <path class="fil1" d="M23.34 12.8l-3.21 0 0 1.51 1.27 0 -0.02 1.44c-0.29,0.27 -0.84,0.66 -1.93,0.66 -1.81,0 -3.25,-1.4 -3.25,-3.29 0,-1.88 1.45,-3.3 3.25,-3.3 1.33,0 2.04,0.56 2.78,1.11l0 -2.11c-0.69,-0.6 -1.58,-0.98 -2.85,-0.98 -2.89,0 -5.33,2.16 -5.33,5.27 0,3.13 2.44,5.28 5.33,5.28 1.65,0 3.1,-0.71 3.95,-1.58l0 -4.02zm6.02 -2.84l1.7 0 0 -1.88 -5.5 0 0 1.88 1.7 0 0 6.33 -1.7 0 0 1.88 5.5 0 0 -1.88 -1.7 0 0 -6.33zm6.74 0l4.79 0 0 -1.88 -6.89 0 0 10.09 2.09 0 0 -3.78 3.96 0 0 -1.88 -3.96 0 0 -2.55z"/>
 </g>
</svg>
