<?xml version="1.0" encoding="UTF-8"?>
<!DOCTYPE svg PUBLIC "-//W3C//DTD SVG 1.1//EN" "http://www.w3.org/Graphics/SVG/1.1/DTD/svg11.dtd">
<!-- Creator: CorelDRAW 2018 (64-Bit) -->
<svg xmlns="http://www.w3.org/2000/svg" xml:space="preserve" width="12.3472mm" height="5.9972mm" version="1.1" style="shape-rendering:geometricPrecision; text-rendering:geometricPrecision; image-rendering:optimizeQuality; fill-rule:evenodd; clip-rule:evenodd"
viewBox="0 0 66.69 32.39"
 xmlns:xlink="http://www.w3.org/1999/xlink">
 <defs>
  <style type="text/css">
   <![CDATA[
    .fil0 {fill:#D6D8DA}
    .fil1 {fill:#D6D8DA;fill-rule:nonzero}
   ]]>
  </style>
 </defs>
 <g id="Warstwa_x0020_1">
  <metadata id="CorelCorpID_0Corel-Layer"/>
  <path class="fil0" d="M16.2 0l34.3 0c8.91,0 16.2,7.29 16.2,16.2 0,8.91 -7.29,16.2 -16.2,16.2l-34.3 0c-8.91,0 -16.2,-7.29 -16.2,-16.2 0,-8.91 7.29,-16.2 16.2,-16.2zm34.3 2.1l-34.3 0c-3.88,0 -7.4,1.59 -9.96,4.14 -2.56,2.56 -4.14,6.08 -4.14,9.96 0,3.88 1.59,7.4 4.14,9.96 2.56,2.56 6.08,4.14 9.96,4.14l34.3 0c3.88,0 7.4,-1.59 9.96,-4.14 2.56,-2.56 4.14,-6.08 4.14,-9.96 0,-3.88 -1.59,-7.4 -4.14,-9.96 -2.56,-2.56 -6.08,-4.14 -9.96,-4.14z"/>
  <path class="fil1" d="M14.59 9.81l0 12.46 2.59 0 0 -4.27c0.62,0.3 1.53,0.56 2.63,0.56 2.49,0 4.65,-1.75 4.65,-4.3 0,-2.76 -2.38,-4.45 -4.71,-4.45l-5.15 0zm4.78 6.52c-0.82,0 -1.64,-0.18 -2.2,-0.41l0 -3.69 2.14 0c1.34,0 2.5,0.72 2.5,2.03 0,1.16 -0.95,2.07 -2.44,2.07zm18.58 6.04l0 -12.56 -2.59 0 0 7.63 -7.36 -7.72 -0.95 0 0 12.56 2.59 0 0 -7.51 7.36 7.61 0.95 0zm14.15 -6.72l-3.96 0 0 1.86 1.57 0 -0.02 1.77c-0.35,0.33 -1.04,0.82 -2.38,0.82 -2.23,0 -4.02,-1.73 -4.02,-4.06 0,-2.32 1.78,-4.07 4.02,-4.07 1.65,0 2.52,0.69 3.43,1.37l0 -2.6c-0.85,-0.74 -1.95,-1.21 -3.52,-1.21 -3.56,0 -6.58,2.66 -6.58,6.51 0,3.86 3.01,6.52 6.58,6.52 2.04,0 3.83,-0.88 4.87,-1.95l0 -4.96z"/>
 </g>
</svg>
