<?xml version="1.0" encoding="UTF-8"?>
<!DOCTYPE svg PUBLIC "-//W3C//DTD SVG 1.1//EN" "http://www.w3.org/Graphics/SVG/1.1/DTD/svg11.dtd">
<!-- Creator: CorelDRAW 2018 (64-Bit) -->
<svg xmlns="http://www.w3.org/2000/svg" xml:space="preserve" width="12.3472mm" height="5.9972mm" version="1.1" style="shape-rendering:geometricPrecision; text-rendering:geometricPrecision; image-rendering:optimizeQuality; fill-rule:evenodd; clip-rule:evenodd"
viewBox="0 0 59.69 28.99"
 xmlns:xlink="http://www.w3.org/1999/xlink">
 <defs>
  <style type="text/css">
   <![CDATA[
    .fil0 {fill:#D6D8DA}
    .fil1 {fill:#D6D8DA;fill-rule:nonzero}
   ]]>
  </style>
 </defs>
 <g id="Warstwa_x0020_1">
  <metadata id="CorelCorpID_0Corel-Layer"/>
  <path class="fil0" d="M14.5 0l30.7 0c7.97,0 14.5,6.52 14.5,14.5 0,7.97 -6.52,14.5 -14.5,14.5l-30.7 0c-7.97,0 -14.5,-6.52 -14.5,-14.5 0,-7.97 6.52,-14.5 14.5,-14.5zm30.7 1.88l-30.7 0c-3.47,0 -6.62,1.42 -8.91,3.71 -2.29,2.29 -3.71,5.44 -3.71,8.91 0,3.47 1.42,6.62 3.71,8.91 2.29,2.29 5.44,3.71 8.91,3.71l30.7 0c3.47,0 6.62,-1.42 8.91,-3.71 2.29,-2.29 3.71,-5.44 3.71,-8.91 0,-3.47 -1.42,-6.62 -3.71,-8.91 -2.29,-2.29 -5.44,-3.71 -8.91,-3.71z"/>
  <path class="fil1" d="M20.5 8.89l-2.31 0 0 10.6c0,1.32 -0.88,2.25 -2.65,2.76l0.9 2.07c2.38,-0.65 4.06,-2.11 4.06,-4.93l0 -10.51zm3.18 0.03l0 11.15 2.31 0 0 -3.83c0.55,0.27 1.37,0.5 2.35,0.5 2.23,0 4.16,-1.56 4.16,-3.85 0,-2.47 -2.13,-3.98 -4.22,-3.98l-4.61 0zm4.28 5.83c-0.73,0 -1.47,-0.16 -1.97,-0.37l0 -3.3 1.92 0c1.2,0 2.23,0.65 2.23,1.82 0,1.03 -0.85,1.85 -2.18,1.85zm16.2 -0.61l-3.54 0 0 1.67 1.4 0 -0.02 1.59c-0.32,0.3 -0.93,0.73 -2.13,0.73 -2,0 -3.6,-1.55 -3.6,-3.64 0,-2.08 1.6,-3.64 3.6,-3.64 1.47,0 2.26,0.61 3.07,1.23l0 -2.33c-0.76,-0.67 -1.75,-1.08 -3.15,-1.08 -3.19,0 -5.89,2.38 -5.89,5.83 0,3.46 2.7,5.84 5.89,5.84 1.82,0 3.43,-0.78 4.36,-1.75l0 -4.44z"/>
 </g>
</svg>
