<?xml version="1.0" encoding="UTF-8"?>
<!DOCTYPE svg PUBLIC "-//W3C//DTD SVG 1.1//EN" "http://www.w3.org/Graphics/SVG/1.1/DTD/svg11.dtd">
<!-- Creator: CorelDRAW 2018 (64-Bit) -->
<svg xmlns="http://www.w3.org/2000/svg" xml:space="preserve" width="7.0907mm" height="7.7962mm" version="1.1" style="shape-rendering:geometricPrecision; text-rendering:geometricPrecision; image-rendering:optimizeQuality; fill-rule:evenodd; clip-rule:evenodd"
viewBox="0 0 21.8 23.96"
 xmlns:xlink="http://www.w3.org/1999/xlink">
 <defs>
  <style type="text/css">
   <![CDATA[
    .fil0 {fill:black;fill-rule:nonzero}
   ]]>
  </style>
 </defs>
 <g id="Pliki">
  <metadata id="CorelCorpID_0Corel-Layer"/>
  <path class="fil0" d="M21.79 10.36c0,0.33 -0.27,0.59 -0.59,0.59 -0.33,0 -0.59,-0.27 -0.59,-0.59l-0 -3.25c-0,-0.13 -0.06,-0.26 -0.14,-0.34 -0.09,-0.09 -0.21,-0.14 -0.35,-0.14l-15.18 0c-0.13,0 -0.25,0.06 -0.34,0.15 -0.09,0.09 -0.15,0.21 -0.15,0.34l0 8.67c0,0.46 -0.19,0.88 -0.49,1.18l-0 0c-0.31,0.31 -0.73,0.49 -1.18,0.49l-1.08 0c-0.46,0 -0.88,-0.19 -1.19,-0.5 -0.3,-0.3 -0.49,-0.72 -0.49,-1.19l0 -14.1c0,-0.46 0.19,-0.88 0.49,-1.19 0.3,-0.3 0.72,-0.49 1.19,-0.49l4.34 0c1.33,-0 2.03,0.65 2.71,1.29 0.47,0.45 0.94,0.88 1.63,0.88l6.45 0.01c0.46,-0 0.88,0.19 1.18,0.49 0.31,0.3 0.5,0.73 0.5,1.19l0 0.26c0,0.33 -0.27,0.6 -0.6,0.6 -0.33,0 -0.6,-0.27 -0.6,-0.6l0 -0.26c0,-0.13 -0.06,-0.25 -0.15,-0.34 -0.09,-0.09 -0.21,-0.14 -0.34,-0.14l-6.45 -0.01c-1.16,-0 -1.79,-0.59 -2.44,-1.2 -0.51,-0.48 -1.03,-0.97 -1.89,-0.97l-4.34 -0c-0.13,0 -0.26,0.06 -0.34,0.15 -0.09,0.09 -0.14,0.21 -0.14,0.34l0 14.1c0,0.13 0.06,0.25 0.14,0.34 0.09,0.09 0.21,0.15 0.34,0.15l1.08 0c0.13,0 0.25,-0.06 0.34,-0.14l0 -0c0.09,-0.09 0.14,-0.21 0.14,-0.34l0 -8.67c0,-0.46 0.19,-0.88 0.49,-1.19 0.3,-0.3 0.73,-0.49 1.19,-0.49l15.18 0c0.46,0 0.88,0.19 1.19,0.49 0.3,0.31 0.49,0.73 0.49,1.19l-0 3.25zm-4.9 6.98c0.13,0 0.25,-0.05 0.34,-0.14 0.09,-0.09 0.14,-0.21 0.14,-0.34 0,-0.13 -0.05,-0.25 -0.14,-0.34 -0.09,-0.09 -0.21,-0.14 -0.34,-0.14 -0.13,0 -0.25,0.05 -0.34,0.14 -0.09,0.09 -0.14,0.2 -0.14,0.34 0,0.13 0.05,0.25 0.14,0.34 0.09,0.09 0.2,0.14 0.34,0.14zm0.77 0.29c-0.2,0.2 -0.47,0.32 -0.77,0.32 -0.3,0 -0.57,-0.12 -0.77,-0.32 -0.2,-0.2 -0.32,-0.47 -0.32,-0.77 0,-0.3 0.12,-0.57 0.32,-0.77 0.2,-0.2 0.47,-0.32 0.77,-0.32 0.3,0 0.57,0.12 0.77,0.32 0.2,0.2 0.32,0.47 0.32,0.77 0,0.3 -0.12,0.57 -0.32,0.77zm-4.05 -0.29c0.13,0 0.25,-0.05 0.34,-0.14 0.09,-0.09 0.14,-0.21 0.14,-0.34 0,-0.13 -0.05,-0.25 -0.14,-0.34 -0.09,-0.08 -0.21,-0.14 -0.34,-0.14 -0.13,0 -0.25,0.05 -0.34,0.14 -0.08,0.09 -0.14,0.21 -0.14,0.34 0,0.13 0.05,0.25 0.14,0.34 0.09,0.09 0.2,0.14 0.34,0.14zm0.77 0.3c-0.2,0.2 -0.47,0.32 -0.77,0.32 -0.3,0 -0.57,-0.12 -0.77,-0.32 -0.2,-0.2 -0.32,-0.47 -0.32,-0.77 0,-0.3 0.12,-0.57 0.32,-0.77 0.2,-0.2 0.47,-0.32 0.77,-0.32 0.3,0 0.57,0.12 0.77,0.32 0.2,0.2 0.32,0.47 0.32,0.77 0,0.3 -0.12,0.57 -0.32,0.77zm-4.05 -0.3c0.13,0 0.25,-0.05 0.34,-0.14 0.09,-0.09 0.14,-0.21 0.14,-0.34 0,-0.13 -0.05,-0.25 -0.14,-0.34 -0.09,-0.08 -0.21,-0.14 -0.34,-0.14 -0.13,0 -0.25,0.05 -0.34,0.14 -0.08,0.09 -0.14,0.21 -0.14,0.34 0,0.13 0.05,0.25 0.14,0.34 0.09,0.09 0.2,0.14 0.34,0.14zm0.77 0.3c-0.2,0.2 -0.47,0.32 -0.77,0.32 -0.3,0 -0.57,-0.12 -0.77,-0.32 -0.2,-0.2 -0.32,-0.47 -0.32,-0.77 0,-0.3 0.12,-0.57 0.32,-0.77 0.2,-0.2 0.47,-0.32 0.77,-0.32 0.3,0 0.57,0.12 0.77,0.32 0.2,0.2 0.32,0.47 0.32,0.77 0,0.3 -0.12,0.57 -0.32,0.77zm2.51 5.14c1.63,0 3.11,-0.66 4.18,-1.73 1.07,-1.07 1.73,-2.55 1.73,-4.18 0,-1.63 -0.66,-3.11 -1.73,-4.18 -1.07,-1.07 -2.55,-1.73 -4.18,-1.73 -1.63,0 -3.11,0.66 -4.18,1.73l-0 0c-1.07,1.07 -1.73,2.55 -1.73,4.18 0,1.63 0.66,3.11 1.73,4.18 1.07,1.07 2.55,1.73 4.18,1.73zm5.02 -0.89c-1.28,1.28 -3.06,2.08 -5.02,2.08 -1.96,0 -3.74,-0.8 -5.02,-2.08 -1.29,-1.29 -2.08,-3.06 -2.08,-5.02 0,-1.96 0.79,-3.73 2.08,-5.02l0 -0c1.29,-1.29 3.06,-2.08 5.02,-2.08 1.96,0 3.74,0.8 5.02,2.08 1.28,1.28 2.08,3.06 2.08,5.02 0,1.96 -0.8,3.74 -2.08,5.02z"/>
 </g>
</svg>
