<?xml version="1.0" encoding="UTF-8"?>
<!DOCTYPE svg PUBLIC "-//W3C//DTD SVG 1.1//EN" "http://www.w3.org/Graphics/SVG/1.1/DTD/svg11.dtd">
<!-- Creator: CorelDRAW 2018 (64-Bit) -->
<svg xmlns="http://www.w3.org/2000/svg" xml:space="preserve" width="51.4896mm" height="11.2889mm" version="1.1" style="shape-rendering:geometricPrecision; text-rendering:geometricPrecision; image-rendering:optimizeQuality; fill-rule:evenodd; clip-rule:evenodd"
viewBox="0 0 5148.96 1128.89"
 xmlns:xlink="http://www.w3.org/1999/xlink">
 <defs>
  <style type="text/css">
   <![CDATA[
    .fil0 {fill:black;fill-rule:nonzero}
    .fil2 {fill:black;fill-rule:nonzero;fill-opacity:0.250980}
    .fil1 {fill:#1A1A1A;fill-rule:nonzero;fill-opacity:0.501961}
   ]]>
  </style>
 </defs>
 <g id="Warstwa_x0020_1">
  <metadata id="CorelCorpID_0Corel-Layer"/>
  <g id="_1831945853648">
   <polygon class="fil0" points="496.14,931.48 580.86,1128.89 580.88,0 496.14,197.4 "/>
   <path class="fil0" d="M940.55 120.69c-60.11,0 -108.81,48.71 -108.81,108.82 0,60.11 48.7,108.82 108.81,108.82 60.1,0 108.8,-48.71 108.8,-108.82 0,-60.11 -48.7,-108.82 -108.8,-108.82zm-94.31 328.51l183.43 0 0 531.63 -183.43 0 0 -531.63z"/>
   <path class="fil0" d="M1089.15 715.54c0,155.44 108.82,280.83 264.26,280.83 72.54,0 134.72,-32.11 174.1,-75.65l2.07 0 0.02 60.11 181.34 0 0 -832.78 -183.43 0 0 351.93c-43.52,-42.49 -102.59,-66.32 -174.1,-66.32 -155.44,0 -264.26,126.43 -264.26,281.88zm194.83 0c0,-73.58 54.92,-125.39 124.35,-125.39 68.4,0 123.32,51.81 123.32,125.39 0,72.54 -51.81,124.36 -123.32,124.36 -74.62,0 -124.35,-51.82 -124.35,-124.36z"/>
   <path class="fil0" d="M2341.43 740.41c1.04,-6.22 1.04,-17.62 1.04,-24.87 0,-186.54 -123.32,-281.88 -284.99,-281.88 -160.63,0 -292.23,126.43 -292.23,281.88 0,154.41 131.6,280.83 292.23,280.83 118.15,0 215.56,-38.34 275.66,-138.86l-132.64 -66.32c-44.57,47.67 -70.47,59.07 -129.55,59.07 -46.62,0 -115.03,-27.99 -115.03,-109.85l385.51 0zm-380.32 -101.55c3.11,-48.71 38.35,-86.02 101.56,-86.02 53.88,0 92.23,30.05 100.52,86.02l-202.08 0z"/>
   <path class="fil0" d="M2630.76 433.66c-139.9,0 -232.13,62.18 -232.13,170.99 0,79.79 53.89,117.1 107.78,145.08 60.1,31.09 118.14,34.2 118.14,72.54 0,35.24 -31.08,38.35 -57.01,38.35 -59.06,0 -131.6,-61.15 -131.6,-61.15l-74.61 125.41c0,0 76.68,71.49 205.18,71.49 108.82,0 251.83,-24.87 251.83,-181.34 0,-108.82 -91.2,-148.2 -161.66,-169.96 -45.6,-14.51 -82.91,-22.81 -82.91,-50.78 0,-24.87 16.58,-32.13 56.99,-32.13 55.97,0 118.15,33.16 118.15,33.16l60.1 -120.21c0,0 -75.65,-41.45 -178.25,-41.45z"/>
   <path class="fil0" d="M2860.2 980.83l183.42 0 0 -300.53c0,-52.85 53.88,-103.62 108.8,-103.62 59.07,0 95.34,50.77 95.34,103.62l0 300.53 183.44 0 0 -350.27c0,-148.19 -135.76,-196.9 -233.18,-196.9 -58.04,0 -110.89,30.06 -152.33,71.51l-2.07 0 0.01 -357.12 -183.43 0 0 832.78z"/>
   <path class="fil0" d="M3482.17 715.54c0,163.74 128.5,280.83 320.23,280.83 183.41,0 317.1,-117.09 317.1,-280.83 0,-165.82 -140.93,-281.88 -317.1,-281.88 -179.3,0 -320.23,116.06 -320.23,281.88zm194.83 0c0,-73.58 54.92,-125.39 124.35,-125.39 68.4,0 123.32,51.81 123.32,125.39 0,72.54 -51.81,124.36 -123.32,124.36 -74.62,0 -124.35,-51.82 -124.35,-124.36z"/>
   <polygon class="fil0" points="4495.05,980.83 4617.34,706.21 4739.63,980.83 4863.99,980.83 5148.96,449.2 4937.57,449.2 4808.02,736.26 4680.55,449.2 4554.13,449.2 4426.66,736.26 4297.11,449.2 4085.71,449.2 4370.69,980.83 "/>
   <polygon class="fil1" points="496.14,931.48 679.57,1128.89 679.58,0 496.14,197.4 "/>
   <polygon class="fil2" points="496.14,931.48 778.27,1128.89 778.28,0 496.14,197.4 "/>
   <path class="fil0" d="M269.43 433.66c-139.9,0 -232.13,62.18 -232.13,170.99 0,79.79 53.89,117.1 107.78,145.08 60.1,31.09 118.14,34.2 118.14,72.54 0,35.24 -31.08,38.35 -57.01,38.35 -59.06,0 -131.6,-61.15 -131.6,-61.15l-74.61 125.41c0,0 76.68,71.49 205.18,71.49 108.82,0 251.83,-24.87 251.83,-181.34 0,-108.82 -91.2,-148.2 -161.66,-169.96 -45.6,-14.51 -82.91,-22.81 -82.91,-50.78 0,-24.87 16.58,-32.13 56.99,-32.13 55.97,0 118.15,33.16 118.15,33.16l60.1 -120.21c0,0 -75.65,-41.45 -178.25,-41.45z"/>
  </g>
 </g>
</svg>
